# xmcd
#
# Track frame offsets:
#	150
#	19864
#	48272
#	65688
#	76242
#	92912
#	105695
#	118953
#	136341
#	151381
#	165362
#	186943
#	209346
#	223348
#	236861
#	258205
#	278442
#	291330
#	303382
#	322798
#	335289
#
# Disc length: 4699
#
# Revision: 2
# Processed by: cddbd v1.5.1PL0 Copyright (c) Steve Scherf et al.
# Submitted via: EasyCDDAExtractor 6.0.0.1
# Normalized: r1:DSETVAR1
#
DISCID=31125915
DTITLE=Various Artist - Love And Soul
DYEAR=1900
DGENRE=Oldies
TTITLE0=Lou Rawls - You'll Never Find
TTITLE1=Aretha Franklin and Lou Rawls - At Last
TTITLE2=The Originals - Baby I'm For Real
TTITLE3=The Temptations - Beauty Is Only Skin Deep
TTITLE4=Thelma Houston - Don't leave Me This Way
TTITLE5=Carl Carlton - Everlasting Love
TTITLE6=Hugh Masakela and The Friends of Distinction - Grazing In the Grass
TTITLE7=Tavares - Heaven Must Be Missing An Angel
TTITLE8=Bobby Purify - I'm Your Puppet
TTITLE9=The Spinners - It's A Shame
TTITLE10=The Manhattans - Kiss And Say Goodbye
TTITLE11=Billy Paul - Me And Mrs Jones
TTITLE12=Jerry butler - Never Gonna Give You Up
TTITLE13=The Temptations - You're My Everything
TTITLE14=Peaches and Herb - Reunited
TTITLE15=Blue Magic - Side Show
TTITLE16=The Temptations - Stand By Me
TTITLE17=The Temptations - The Way You Do The Things You Do
TTITLE18=The Temptations - Treat her like a lady
TTITLE19=The Three Degrees - When Will I See You Again
TTITLE20=Barbara Mason - Yes, I'm Ready
EXTD=
EXTT0=
EXTT1=
EXTT2=
EXTT3=
EXTT4=
EXTT5=
EXTT6=
EXTT7=
EXTT8=
EXTT9=
EXTT10=
EXTT11=
EXTT12=
EXTT13=
EXTT14=
EXTT15=
EXTT16=
EXTT17=
EXTT18=
EXTT19=
EXTT20=
PLAYORDER=
